<svg width="209" height="58" viewBox="0 0 209 58" fill="none" xmlns="http://www.w3.org/2000/svg">
<rect width="209" height="58" fill="#303032"/>
<path d="M76.6663 35H75.0569L69.7756 29.2109V35H68.4475V23.5781H69.7756V29.1094L74.9241 23.5781H76.4475L71.3928 29.125L76.6663 35ZM81.0431 35.1562C80.465 35.1562 79.9572 35.0781 79.5197 34.9219V33.625C80.0041 33.849 80.4963 33.9609 80.9963 33.9609C81.5692 33.9609 82.0275 33.8307 82.3713 33.5703C82.7202 33.3047 83.0666 32.8099 83.4103 32.0859L78.965 23.5781H80.4338L83.8088 30.0703C83.939 30.3255 84.0405 30.5755 84.1134 30.8203H84.1759C84.3218 30.3828 84.4233 30.1068 84.4806 29.9922L87.2853 23.5781H88.6916L85.0431 31.75C84.6056 32.724 84.2098 33.4323 83.8556 33.875C83.5067 34.3177 83.1108 34.6432 82.6681 34.8516C82.2306 35.0547 81.689 35.1562 81.0431 35.1562ZM100.865 35H99.5372V24.7578H93.67V35H92.3419V23.5781H100.865V35ZM106.109 23.5781H107.352V29.9297C107.352 31.1016 107.315 32.1615 107.242 33.1094H107.305L113.711 23.5781H115.164V35H113.914V28.7109C113.914 27.6641 113.958 26.5651 114.047 25.4141H113.977L107.562 35H106.109V23.5781ZM123.893 35H122.564V24.7578H118.947V23.5781H127.51V24.7578H123.893V35ZM139.199 31.6719C139.199 32.7292 138.845 33.5495 138.137 34.1328C137.433 34.7109 136.428 35 135.121 35H131.316V23.5781H132.644V28.4531H134.918C136.308 28.4531 137.368 28.7292 138.098 29.2812C138.832 29.8281 139.199 30.625 139.199 31.6719ZM132.644 33.8516H134.98C136.876 33.8516 137.824 33.125 137.824 31.6719C137.824 30.9688 137.579 30.4531 137.09 30.125C136.605 29.7917 135.827 29.625 134.754 29.625H132.644V33.8516Z" fill="white"/>
</svg>
